<svg width="289" height="113" viewBox="0 0 289 113" fill="none" xmlns="http://www.w3.org/2000/svg">
    <path d="M270.768 91.8535C273.899 106.254 258.294 109.378 251.42 107.504C244.546 105.629 230.526 105.316 230.526 105.316C230.526 105.316 216.467 105.629 209.593 107.504C202.719 109.391 187.101 106.254 190.219 91.8535C193.338 77.4533 207.085 78.0782 210.853 58.6653C214.609 39.2524 230.539 40.5023 230.539 40.5023C230.539 40.5023 246.43 39.2524 250.186 58.6653C253.928 78.0782 267.649 77.4531 270.768 91.8535ZM244.949 39.2394C253.408 41.6871 262.751 34.9949 265.83 24.2923C268.91 13.6029 264.557 2.95239 256.098 0.504743C247.639 -1.94311 238.296 4.74924 235.217 15.4519C232.137 26.1413 236.49 36.7918 244.949 39.2394ZM280.006 35.3466C271.859 32.0133 261.854 37.6643 257.657 47.9759C253.46 58.2879 256.657 69.342 264.804 72.6619C272.951 75.982 282.956 70.3442 287.153 60.0324C291.35 49.7206 288.154 38.6797 280.006 35.3466ZM216.038 39.2394C224.497 36.7916 228.85 26.1413 225.77 15.4519C222.691 4.76243 213.335 -1.92992 204.889 0.517933C196.443 2.96558 192.077 13.6159 195.157 24.3055C198.236 34.9949 207.579 41.6871 216.038 39.2394ZM196.196 72.6619C204.343 69.3288 207.54 58.2747 203.343 47.9759C199.146 37.677 189.141 32.0133 180.994 35.3466C172.846 38.6797 169.65 49.7338 173.847 60.0324C178.044 70.3442 188.049 75.995 196.196 72.6619Z" fill="#D9B343" fill-opacity="0.29"/>
    <path d="M226.472 96.84L228.776 96.744C230.312 96.744 231.336 97.096 231.848 97.8C232.424 98.44 232.712 99.624 232.712 101.352C232.712 103.016 232.328 104.232 231.56 105C230.856 105.832 229.416 106.248 227.24 106.248C225.128 106.248 223.624 105.832 222.728 105C221.896 104.168 221.48 102.344 221.48 99.528C221.48 96.712 221.896 95.304 222.728 95.304L223.784 96.072C224.488 96.584 225.384 96.84 226.472 96.84ZM216.2 42.792C217.48 41.512 219.464 40.328 222.152 39.24C224.84 38.152 227.88 37.608 231.272 37.608C234.664 37.608 237.512 38.12 239.816 39.144C242.12 40.104 243.816 41.224 244.904 42.504C245.992 43.784 246.856 45.256 247.496 46.92C248.328 49.096 248.744 51.368 248.744 53.736C248.744 56.104 248.104 58.568 246.824 61.128C245.544 63.688 244.008 65.832 242.216 67.56C240.424 69.288 238.632 70.888 236.84 72.36C232.488 76.072 230.312 79.272 230.312 81.96C230.312 83.496 230.76 84.904 231.656 86.184C232.552 87.464 233 88.136 233 88.2C233 88.776 232.36 89.064 231.08 89.064C230.504 89.064 229.48 88.84 228.008 88.392C226.6 87.88 225.448 87.304 224.552 86.664C223.72 86.024 222.952 85.064 222.248 83.784C221.544 82.44 221.192 81.096 221.192 79.752C221.192 78.408 221.672 77.416 222.632 76.776C233 69.416 238.184 61.736 238.184 53.736C238.184 51.688 237.896 49.8 237.32 48.072C236.232 44.616 234.12 42.888 230.984 42.888C227.912 42.888 225.544 44.104 223.88 46.536C222.28 48.968 221.48 51.944 221.48 55.464C221.48 57.896 222.184 59.976 223.592 61.704C224.104 62.28 224.36 62.664 224.36 62.856C224.36 63.56 223.496 63.912 221.768 63.912C221 63.912 219.944 63.688 218.6 63.24C217.256 62.728 216.136 62.12 215.24 61.416C214.408 60.712 213.64 59.592 212.936 58.056C212.232 56.456 211.88 55.048 211.88 53.832C211.88 52.552 211.912 51.592 211.976 50.952C212.104 50.248 212.52 49.032 213.224 47.304C213.992 45.576 214.984 44.072 216.2 42.792Z" fill="#D9B343"/>
    <g style="mix-blend-mode:darken">
        <path d="M19.808 62.96C20.128 62.16 20.384 61.344 20.576 60.512C20.8 59.648 20.912 58.864 20.912 58.16C20.912 57.424 20.656 56.08 20.144 54.128C19.248 50.864 18.48 48.928 17.84 48.32L17.552 47.984C17.232 47.792 17.072 47.568 17.072 47.312C17.072 46.768 17.792 46.304 19.232 45.92C20.672 45.536 21.84 45.344 22.736 45.344C23.664 45.344 24.208 45.616 24.368 46.16C24.752 47.344 25.168 49.056 25.616 51.296C26.096 53.536 26.496 55.472 26.816 57.104C27.168 58.704 27.44 59.936 27.632 60.8C27.824 61.664 28.08 62.784 28.4 64.16C29.008 66.72 29.616 68.816 30.224 70.448C30.416 70.896 30.64 71.12 30.896 71.12C31.184 71.12 31.472 70.848 31.76 70.304C32.08 69.728 32.496 68.928 33.008 67.904C33.552 66.848 34.256 64.992 35.12 62.336C36.016 59.68 36.464 57.376 36.464 55.424C36.464 52.416 35.472 50.288 33.488 49.04C33.328 48.848 33.248 48.64 33.248 48.416C33.248 48.192 33.36 47.968 33.584 47.744C33.808 47.584 34.128 47.376 34.544 47.12C34.96 46.832 35.792 46.48 37.04 46.064C38.288 45.616 39.408 45.392 40.4 45.392C41.392 45.392 41.984 45.536 42.176 45.824C42.368 46.08 42.464 46.56 42.464 47.264C42.464 50.368 41.536 54.496 39.68 59.648C37.856 64.768 35.904 69.296 33.824 73.232C31.776 77.136 30.24 79.584 29.216 80.576C28.672 81.056 28.352 81.296 28.256 81.296C27.968 81.296 27.696 81.072 27.44 80.624C26.352 78.8 25.168 75.232 23.888 69.92C23.312 67.424 22.976 66.016 22.88 65.696C22.784 65.376 22.704 65.216 22.64 65.216C22.48 65.216 22.336 65.376 22.208 65.696C21.088 68.288 19.84 70.832 18.464 73.328C17.088 75.792 15.984 77.616 15.152 78.8L13.952 80.576C13.632 81.024 13.312 81.248 12.992 81.248C12.672 81.248 12.384 81.04 12.128 80.624C11.264 78.992 10.208 75.84 8.96 71.168L8.336 68.768C8.208 68.32 7.92 67.104 7.472 65.12C5.776 57.536 4.48 52.8 3.584 50.912C3.072 49.856 2.624 49.168 2.24 48.848C1.888 48.528 1.6 48.336 1.376 48.272C1.024 48.112 0.848 47.92 0.848 47.696C0.848 47.44 0.976 47.2 1.232 46.976C1.616 46.688 2.464 46.352 3.776 45.968C5.088 45.552 6.192 45.344 7.088 45.344C7.984 45.344 8.512 45.616 8.672 46.16C9.312 47.344 10.064 50 10.928 54.128C12.752 62.768 14.096 68.208 14.96 70.448C15.12 70.896 15.344 71.12 15.632 71.12C15.92 71.12 16.176 70.88 16.4 70.4C16.688 70.112 17.248 69.008 18.08 67.088C18.944 65.136 19.52 63.76 19.808 62.96ZM49.6164 54.224L49.5684 58.88C49.5684 59.072 49.6324 59.168 49.7604 59.168C49.8884 59.168 50.0164 59.12 50.1444 59.024C50.9444 58.48 52.2084 58.208 53.9364 58.208C56.8484 58.208 58.8644 59.2 59.9844 61.184C60.4004 61.92 60.6084 62.896 60.6084 64.112C60.6084 65.328 60.5284 67.008 60.3684 69.152C60.2404 71.296 60.1764 72.816 60.1764 73.712C60.1764 76.848 60.6244 78.928 61.5204 79.952C61.6804 80.112 61.7604 80.272 61.7604 80.432C61.7604 80.752 61.0724 80.912 59.6964 80.912C55.9844 80.912 54.1284 79.184 54.1284 75.728C54.1284 74.384 54.4484 72.496 55.0884 70.064C55.7284 67.632 56.0484 65.84 56.0484 64.688C56.0484 63.536 55.7764 62.656 55.2324 62.048C54.6884 61.408 53.9364 61.088 52.9764 61.088C52.0164 61.088 51.2484 61.296 50.6724 61.712C50.1284 62.128 49.7924 62.56 49.6644 63.008L49.5204 63.632C49.4884 64.24 49.4724 66.176 49.4724 69.44C49.4724 72.704 49.5524 74.832 49.7124 75.824C49.8724 76.784 49.9524 77.328 49.9524 77.456C49.9524 78.384 49.3284 79.216 48.0804 79.952C46.8324 80.656 45.6004 81.008 44.3844 81.008C43.9364 81.008 43.7124 80.752 43.7124 80.24L43.8084 79.328C44.5124 73.952 44.8644 68.128 44.8644 61.856C44.8644 59.424 44.7684 56.96 44.5764 54.464L44.5284 53.408C44.4644 52.512 44.2724 51.744 43.9524 51.104C43.6644 50.464 43.3924 50.048 43.1364 49.856L42.7044 49.616C42.4804 49.488 42.3684 49.344 42.3684 49.184C42.3684 48.736 43.1204 48.192 44.6244 47.552C46.1284 46.88 47.2804 46.544 48.0804 46.544C48.9124 46.544 49.3604 46.72 49.4244 47.072C49.5524 48.704 49.6164 51.088 49.6164 54.224ZM79.2376 65.6L79.1416 71.744C79.1416 76 79.6056 78.56 80.5336 79.424C80.6616 79.552 80.7256 79.696 80.7256 79.856C80.7256 80.336 79.6856 80.576 77.6056 80.576C75.5576 80.576 74.4696 79.968 74.3416 78.752C74.3096 78.464 74.2936 77.872 74.2936 76.976L74.4856 69.296C74.4856 69.072 74.3576 68.96 74.1016 68.96C72.5656 68.96 71.1256 69.392 69.7816 70.256C68.4376 71.12 67.7656 72.224 67.7656 73.568C67.7656 74.272 67.9576 74.864 68.3416 75.344C68.7256 75.824 69.1896 76.064 69.7336 76.064C70.3096 76.064 70.7736 75.952 71.1256 75.728C71.5096 75.504 71.7336 75.376 71.7976 75.344C72.3416 75.408 72.6136 75.984 72.6136 77.072C72.6136 78.128 72.1176 78.992 71.1256 79.664C70.1336 80.304 69.0936 80.624 68.0056 80.624C66.9176 80.624 65.9736 80.432 65.1736 80.048C64.4056 79.664 63.8456 79.232 63.4936 78.752C63.1416 78.272 62.8536 77.728 62.6296 77.12C62.4056 76.384 62.2936 75.744 62.2936 75.2C62.2936 72.96 62.9976 71.168 64.4056 69.824C65.8136 68.48 67.6216 67.52 69.8296 66.944C72.7416 66.368 74.2616 65.84 74.3896 65.36C74.4856 65.008 74.5336 64.416 74.5336 63.584C74.5336 61.888 73.6696 61.04 71.9416 61.04C71.2056 61.04 70.5496 61.28 69.9736 61.76C69.3976 62.208 69.1096 62.784 69.1096 63.488L69.3976 64.64C69.3336 65.184 68.7576 65.504 67.6696 65.6L67.1416 65.648C66.1816 65.648 65.4136 65.408 64.8376 64.928C64.2936 64.448 64.0216 63.808 64.0216 63.008C64.0216 62.496 64.1816 61.936 64.5016 61.328C64.8536 60.688 65.2856 60.176 65.7976 59.792C66.3096 59.408 67.0936 59.072 68.1496 58.784C69.2376 58.464 70.2776 58.304 71.2696 58.304C72.2616 58.304 73.0296 58.336 73.5736 58.4C74.1176 58.464 74.8536 58.624 75.7816 58.88C76.7416 59.104 77.5256 59.552 78.1336 60.224C78.7736 60.896 79.1096 61.616 79.1416 62.384C79.2056 63.12 79.2376 64.192 79.2376 65.6ZM81.4231 61.28L81.5671 59.36C81.5991 59.072 81.8231 58.928 82.2391 58.928H83.9191L83.7271 55.088V54.896C83.7271 54.16 84.2871 53.456 85.4071 52.784C86.5271 52.112 87.5511 51.776 88.4791 51.776C88.7671 51.776 88.9111 51.904 88.9111 52.16V52.208C88.7831 53.072 88.6551 55.296 88.5271 58.88C89.9351 58.88 90.8311 58.848 91.2151 58.784C91.5991 58.72 91.8071 58.688 91.8391 58.688C92.0631 58.688 92.1751 58.88 92.1751 59.264C92.1751 59.648 91.9991 60.144 91.6471 60.752C91.2951 61.328 90.9111 61.632 90.4951 61.664H88.4791C88.4471 62.752 88.4311 64.592 88.4311 67.184C88.4311 69.744 88.4471 71.856 88.4791 73.52C88.5431 75.184 88.6071 76.448 88.6711 77.312C88.7351 78.144 88.7991 78.816 88.8631 79.328C88.9591 79.84 89.0231 80.208 89.0551 80.432C89.1191 80.656 89.1511 80.8 89.1511 80.864C89.1511 81.184 88.9431 81.36 88.5271 81.392C87.2791 81.392 86.0311 81.216 84.7831 80.864C83.5671 80.512 82.9591 79.904 82.9591 79.04C83.6311 73.664 83.9671 67.888 83.9671 61.712C83.1031 61.712 82.4471 61.744 81.9991 61.808H81.9511C81.6631 61.808 81.4871 61.632 81.4231 61.28ZM111.199 63.44L110.095 63.728C109.519 63.728 109.231 63.2 109.231 62.144C109.231 61.056 109.615 60.192 110.383 59.552C111.183 58.88 112.191 58.544 113.407 58.544C114.079 58.544 114.799 58.752 115.567 59.168C116.335 59.552 116.975 60.048 117.487 60.656C117.999 61.232 118.447 62.16 118.831 63.44C119.247 64.688 119.455 66.16 119.455 67.856C119.455 71.76 118.399 74.928 116.287 77.36C114.207 79.792 111.183 81.008 107.215 81.008C106.063 81.008 104.927 80.896 103.807 80.672L103.327 80.576C102.911 80.448 102.671 80.224 102.607 79.904C102.511 79.232 102.463 77.648 102.463 75.152L102.751 59.6C102.751 57.2 102.687 55.36 102.559 54.08L102.463 53.408C102.399 52.512 102.207 51.744 101.887 51.104C101.599 50.464 101.311 50.048 101.023 49.856L100.639 49.616C100.415 49.488 100.303 49.344 100.303 49.184C100.303 48.704 101.103 48.144 102.703 47.504C104.303 46.832 105.471 46.496 106.207 46.496C106.943 46.496 107.327 46.688 107.359 47.072C107.583 49.024 107.695 51.808 107.695 55.424L107.455 66.944C107.455 71.968 107.599 75.44 107.887 77.36C107.919 77.808 108.415 78.032 109.375 78.032C110.367 78.032 111.215 77.76 111.919 77.216C112.623 76.672 113.151 75.952 113.503 75.056C114.143 73.424 114.463 71.616 114.463 69.632C114.463 68.704 114.335 67.696 114.079 66.608C113.631 64.496 112.671 63.44 111.199 63.44ZM136.252 67.136L136.444 68.816C136.444 69.424 135.868 69.728 134.716 69.728C132.38 69.728 131.212 68.848 131.212 67.088C131.212 66.672 131.324 66.096 131.548 65.36C131.772 64.624 131.884 63.984 131.884 63.44C131.884 62.896 131.724 62.432 131.404 62.048C131.084 61.632 130.62 61.424 130.012 61.424C129.404 61.424 128.876 61.648 128.428 62.096C128.012 62.512 127.756 62.944 127.66 63.392L127.468 64.064C127.276 65.056 127.18 66.72 127.18 69.056C127.18 71.36 127.212 73.184 127.276 74.528C127.34 75.84 127.404 76.752 127.468 77.264C127.532 77.744 127.564 78.032 127.564 78.128C127.564 78.928 127.068 79.568 126.076 80.048C125.084 80.56 124.092 80.816 123.1 80.816C122.108 80.816 121.612 80.608 121.612 80.192L121.852 78.704C122.3 75.92 122.524 72.288 122.524 67.808C122.524 63.328 122.364 60.288 122.044 58.688C122.044 58.304 122.38 58.112 123.052 58.112C124.78 58.112 125.932 58.704 126.508 59.888C126.54 60.016 126.588 60.08 126.652 60.08C126.748 60.08 126.972 59.936 127.324 59.648C128.38 58.784 129.628 58.352 131.068 58.352C131.964 58.352 132.86 58.528 133.756 58.88C135.58 59.616 136.492 61.152 136.492 63.488L136.252 67.136ZM143.234 67.808L143.282 69.008C143.282 69.2 143.41 69.296 143.666 69.296C144.69 69.2 145.586 68.944 146.354 68.528C147.122 68.08 147.698 67.584 148.082 67.04C148.85 65.856 149.266 64.832 149.33 63.968L149.378 63.392C149.378 61.664 148.69 60.8 147.314 60.8C146.29 60.8 145.458 61.248 144.818 62.144C143.762 63.552 143.234 65.44 143.234 67.808ZM153.698 74.192C153.698 75.408 153.442 76.48 152.93 77.408C152.45 78.304 151.89 78.976 151.25 79.424C150.642 79.84 149.922 80.176 149.09 80.432C148.034 80.752 147.026 80.912 146.066 80.912C143.378 80.912 141.394 79.904 140.114 77.888C138.834 75.872 138.194 73.312 138.194 70.208C138.194 67.072 138.978 64.288 140.546 61.856C142.146 59.424 144.53 58.208 147.698 58.208C150.578 58.208 152.53 59.216 153.554 61.232C153.97 62 154.178 62.736 154.178 63.44C154.178 64.112 154.146 64.656 154.082 65.072C154.018 65.456 153.794 66.048 153.41 66.848C153.026 67.648 152.514 68.368 151.874 69.008C151.234 69.648 150.226 70.256 148.85 70.832C147.474 71.408 145.858 71.792 144.002 71.984C143.746 71.984 143.618 72.096 143.618 72.32C143.618 72.608 143.714 73.04 143.906 73.616C144.13 74.16 144.37 74.624 144.626 75.008C145.33 75.904 146.37 76.352 147.746 76.352C149.122 76.352 150.29 75.904 151.25 75.008C151.762 74.528 152.178 73.936 152.498 73.232C152.626 72.976 152.786 72.848 152.978 72.848C153.202 72.848 153.378 73.024 153.506 73.376C153.634 73.728 153.698 74 153.698 74.192ZM160.906 67.808L160.954 69.008C160.954 69.2 161.082 69.296 161.338 69.296C162.362 69.2 163.258 68.944 164.026 68.528C164.794 68.08 165.37 67.584 165.754 67.04C166.522 65.856 166.938 64.832 167.002 63.968L167.05 63.392C167.05 61.664 166.362 60.8 164.986 60.8C163.962 60.8 163.13 61.248 162.49 62.144C161.434 63.552 160.906 65.44 160.906 67.808ZM171.37 74.192C171.37 75.408 171.114 76.48 170.602 77.408C170.122 78.304 169.562 78.976 168.922 79.424C168.314 79.84 167.594 80.176 166.762 80.432C165.706 80.752 164.698 80.912 163.738 80.912C161.05 80.912 159.066 79.904 157.786 77.888C156.506 75.872 155.866 73.312 155.866 70.208C155.866 67.072 156.65 64.288 158.218 61.856C159.818 59.424 162.202 58.208 165.37 58.208C168.25 58.208 170.202 59.216 171.226 61.232C171.642 62 171.85 62.736 171.85 63.44C171.85 64.112 171.818 64.656 171.754 65.072C171.69 65.456 171.466 66.048 171.082 66.848C170.698 67.648 170.186 68.368 169.546 69.008C168.906 69.648 167.898 70.256 166.522 70.832C165.146 71.408 163.53 71.792 161.674 71.984C161.418 71.984 161.29 72.096 161.29 72.32C161.29 72.608 161.386 73.04 161.578 73.616C161.802 74.16 162.042 74.624 162.298 75.008C163.002 75.904 164.042 76.352 165.418 76.352C166.794 76.352 167.962 75.904 168.922 75.008C169.434 74.528 169.85 73.936 170.17 73.232C170.298 72.976 170.458 72.848 170.65 72.848C170.874 72.848 171.05 73.024 171.178 73.376C171.306 73.728 171.37 74 171.37 74.192ZM183.618 58.448C184.194 58.448 184.706 58.528 185.154 58.688C185.634 58.816 185.89 58.88 185.922 58.88L186.21 58.64L186.018 53.408C185.954 52.512 185.762 51.744 185.442 51.104C185.122 50.464 184.834 50.048 184.578 49.856L184.146 49.616C183.954 49.488 183.858 49.344 183.858 49.184C183.858 48.704 184.594 48.144 186.066 47.504C187.57 46.864 188.738 46.544 189.57 46.544C190.402 46.544 190.85 46.72 190.914 47.072C191.074 48.16 191.154 50.24 191.154 53.312C191.154 56.352 191.074 59.344 190.914 62.288C190.786 65.232 190.722 68.576 190.722 72.32C190.722 76.032 190.962 78.368 191.442 79.328C191.57 79.552 191.634 79.76 191.634 79.952C191.634 80.432 190.946 80.672 189.57 80.672C186.946 80.672 185.634 80.048 185.634 78.8C185.57 78.288 185.538 77.504 185.538 76.448C185.538 75.36 185.634 73.36 185.826 70.448C186.05 67.504 186.162 65.248 186.162 63.68C186.162 62.08 185.362 61.28 183.762 61.28C182.194 61.28 180.994 62.208 180.162 64.064C179.33 65.92 178.914 67.776 178.914 69.632C178.914 73.568 179.906 75.536 181.89 75.536C182.178 75.536 182.45 75.488 182.706 75.392C182.994 75.264 183.17 75.2 183.234 75.2C183.49 75.2 183.682 75.36 183.81 75.68C183.97 76 184.05 76.32 184.05 76.64C184.05 77.728 183.618 78.656 182.754 79.424C181.89 80.16 180.834 80.528 179.586 80.528C177.666 80.528 176.21 79.696 175.218 78.032C174.258 76.336 173.778 74.24 173.778 71.744C173.778 68.576 174.53 65.632 176.034 62.912C176.802 61.568 177.842 60.496 179.154 59.696C180.466 58.864 181.954 58.448 183.618 58.448Z" fill="#D9B343"/>
    </g>
    <path d="M114.192 92.16L113.616 92.136C113.184 92.136 112.904 92.24 112.776 92.448C112.744 92.496 112.704 92.52 112.656 92.52C112.448 92.52 112.344 92.168 112.344 91.464C112.344 90.744 112.448 90.288 112.656 90.096C112.88 89.904 113.256 89.808 113.784 89.808C114.328 89.808 114.696 89.904 114.888 90.096C115.08 90.272 115.176 90.576 115.176 91.008C115.176 91.44 115.104 91.744 114.96 91.92C114.816 92.08 114.56 92.16 114.192 92.16ZM112.272 104.28L112.536 98.688C112.536 97.36 112.384 96.456 112.08 95.976C111.984 95.816 111.872 95.696 111.744 95.616C111.648 95.584 111.6 95.52 111.6 95.424C111.6 95.136 112.008 94.856 112.824 94.584C113.64 94.312 114.232 94.176 114.6 94.176C114.984 94.176 115.184 94.272 115.2 94.464C115.2 94.784 115.152 95.696 115.056 97.2C114.976 98.688 114.936 100.256 114.936 101.904C114.936 103.552 115.032 104.576 115.224 104.976C115.272 105.056 115.296 105.136 115.296 105.216C115.296 105.424 114.992 105.528 114.384 105.528C113.776 105.528 113.152 105.368 112.512 105.048C112.352 104.968 112.272 104.712 112.272 104.28ZM124.055 101.712C124.055 102.4 123.919 103 123.647 103.512C123.391 104.024 123.095 104.4 122.759 104.64C122.423 104.88 122.023 105.072 121.559 105.216C120.951 105.408 120.399 105.504 119.903 105.504C118.863 105.504 117.999 105.304 117.311 104.904C116.623 104.488 116.279 103.832 116.279 102.936C116.279 102.408 116.423 101.976 116.711 101.64C117.159 101.144 117.695 100.896 118.319 100.896C118.511 100.896 118.607 100.984 118.607 101.16C118.607 101.176 118.567 101.304 118.487 101.544C118.423 101.768 118.391 102.056 118.391 102.408C118.391 102.76 118.527 103.072 118.799 103.344C119.087 103.616 119.431 103.752 119.831 103.752C120.231 103.752 120.551 103.688 120.791 103.56C121.031 103.416 121.199 103.24 121.295 103.032C121.439 102.744 121.511 102.472 121.511 102.216C121.511 101.752 121.279 101.352 120.815 101.016C120.351 100.68 119.839 100.416 119.279 100.224C118.719 100.032 118.207 99.712 117.743 99.264C117.279 98.816 117.047 98.256 117.047 97.584C117.047 96.432 117.407 95.568 118.127 94.992C118.863 94.416 119.855 94.128 121.103 94.128C121.647 94.128 122.215 94.208 122.807 94.368C123.415 94.512 123.719 94.768 123.719 95.136C123.719 95.488 123.655 95.816 123.527 96.12C123.415 96.424 123.271 96.576 123.095 96.576C122.999 96.576 122.935 96.544 122.903 96.48C122.871 96.4 122.815 96.312 122.735 96.216C122.655 96.12 122.463 96 122.159 95.856C121.855 95.696 121.591 95.616 121.367 95.616C121.159 95.616 121.015 95.624 120.935 95.64C120.871 95.64 120.751 95.664 120.575 95.712C120.399 95.744 120.239 95.8 120.095 95.88C119.727 96.088 119.543 96.392 119.543 96.792C119.543 97.048 119.599 97.24 119.711 97.368C119.823 97.48 119.911 97.568 119.975 97.632C120.039 97.696 120.151 97.776 120.311 97.872C120.471 97.952 120.583 98.008 120.647 98.04C120.711 98.072 120.855 98.144 121.079 98.256C121.303 98.352 121.447 98.416 121.511 98.448C123.207 99.248 124.055 100.336 124.055 101.712ZM128.962 95.64L129.034 94.68C129.05 94.536 129.162 94.464 129.37 94.464H130.21L130.114 92.544V92.448C130.114 92.08 130.394 91.728 130.954 91.392C131.514 91.056 132.026 90.888 132.49 90.888C132.634 90.888 132.706 90.952 132.706 91.08V91.104C132.642 91.536 132.578 92.648 132.514 94.44C133.218 94.44 133.666 94.424 133.858 94.392C134.05 94.36 134.154 94.344 134.17 94.344C134.282 94.344 134.338 94.44 134.338 94.632C134.338 94.824 134.25 95.072 134.074 95.376C133.898 95.664 133.706 95.816 133.498 95.832H132.49C132.474 96.376 132.466 97.296 132.466 98.592C132.466 99.872 132.474 100.928 132.49 101.76C132.522 102.592 132.554 103.224 132.586 103.656C132.618 104.072 132.65 104.408 132.682 104.664C132.73 104.92 132.762 105.104 132.778 105.216C132.81 105.328 132.826 105.4 132.826 105.432C132.826 105.592 132.722 105.68 132.514 105.696C131.89 105.696 131.266 105.608 130.642 105.432C130.034 105.256 129.73 104.952 129.73 104.52C130.066 101.832 130.234 98.944 130.234 95.856C129.802 95.856 129.474 95.872 129.25 95.904H129.226C129.082 95.904 128.994 95.816 128.962 95.64ZM137.785 92.112L137.761 94.44C137.761 94.536 137.793 94.584 137.857 94.584C137.921 94.584 137.985 94.56 138.049 94.512C138.449 94.24 139.081 94.104 139.945 94.104C141.401 94.104 142.409 94.6 142.969 95.592C143.177 95.96 143.281 96.448 143.281 97.056C143.281 97.664 143.241 98.504 143.161 99.576C143.097 100.648 143.065 101.408 143.065 101.856C143.065 103.424 143.289 104.464 143.737 104.976C143.817 105.056 143.857 105.136 143.857 105.216C143.857 105.376 143.513 105.456 142.825 105.456C140.969 105.456 140.041 104.592 140.041 102.864C140.041 102.192 140.201 101.248 140.521 100.032C140.841 98.816 141.001 97.92 141.001 97.344C141.001 96.768 140.865 96.328 140.593 96.024C140.321 95.704 139.945 95.544 139.465 95.544C138.985 95.544 138.601 95.648 138.313 95.856C138.041 96.064 137.873 96.28 137.809 96.504L137.737 96.816C137.721 97.12 137.713 98.088 137.713 99.72C137.713 101.352 137.753 102.416 137.833 102.912C137.913 103.392 137.953 103.664 137.953 103.728C137.953 104.192 137.641 104.608 137.017 104.976C136.393 105.328 135.777 105.504 135.169 105.504C134.945 105.504 134.833 105.376 134.833 105.12L134.881 104.664C135.233 101.976 135.409 99.064 135.409 95.928C135.409 94.712 135.361 93.48 135.265 92.232L135.241 91.704C135.209 91.256 135.113 90.872 134.953 90.552C134.809 90.232 134.673 90.024 134.545 89.928L134.329 89.808C134.217 89.744 134.161 89.672 134.161 89.592C134.161 89.368 134.537 89.096 135.289 88.776C136.041 88.44 136.617 88.272 137.017 88.272C137.433 88.272 137.657 88.36 137.689 88.536C137.753 89.352 137.785 90.544 137.785 92.112ZM147.051 92.16L146.475 92.136C146.043 92.136 145.763 92.24 145.635 92.448C145.603 92.496 145.563 92.52 145.515 92.52C145.307 92.52 145.203 92.168 145.203 91.464C145.203 90.744 145.307 90.288 145.515 90.096C145.739 89.904 146.115 89.808 146.643 89.808C147.187 89.808 147.555 89.904 147.747 90.096C147.939 90.272 148.035 90.576 148.035 91.008C148.035 91.44 147.963 91.744 147.819 91.92C147.675 92.08 147.419 92.16 147.051 92.16ZM145.131 104.28L145.395 98.688C145.395 97.36 145.243 96.456 144.939 95.976C144.843 95.816 144.731 95.696 144.603 95.616C144.507 95.584 144.459 95.52 144.459 95.424C144.459 95.136 144.867 94.856 145.683 94.584C146.499 94.312 147.091 94.176 147.459 94.176C147.843 94.176 148.043 94.272 148.059 94.464C148.059 94.784 148.011 95.696 147.915 97.2C147.835 98.688 147.795 100.256 147.795 101.904C147.795 103.552 147.891 104.576 148.083 104.976C148.131 105.056 148.155 105.136 148.155 105.216C148.155 105.424 147.851 105.528 147.243 105.528C146.635 105.528 146.011 105.368 145.371 105.048C145.211 104.968 145.131 104.712 145.131 104.28ZM156.914 101.712C156.914 102.4 156.778 103 156.506 103.512C156.25 104.024 155.954 104.4 155.618 104.64C155.282 104.88 154.882 105.072 154.418 105.216C153.81 105.408 153.258 105.504 152.762 105.504C151.722 105.504 150.858 105.304 150.17 104.904C149.482 104.488 149.138 103.832 149.138 102.936C149.138 102.408 149.282 101.976 149.57 101.64C150.018 101.144 150.554 100.896 151.178 100.896C151.37 100.896 151.466 100.984 151.466 101.16C151.466 101.176 151.426 101.304 151.346 101.544C151.282 101.768 151.25 102.056 151.25 102.408C151.25 102.76 151.386 103.072 151.658 103.344C151.946 103.616 152.29 103.752 152.69 103.752C153.09 103.752 153.41 103.688 153.65 103.56C153.89 103.416 154.058 103.24 154.154 103.032C154.298 102.744 154.37 102.472 154.37 102.216C154.37 101.752 154.138 101.352 153.674 101.016C153.21 100.68 152.698 100.416 152.138 100.224C151.578 100.032 151.066 99.712 150.602 99.264C150.138 98.816 149.906 98.256 149.906 97.584C149.906 96.432 150.266 95.568 150.986 94.992C151.722 94.416 152.714 94.128 153.962 94.128C154.506 94.128 155.074 94.208 155.666 94.368C156.274 94.512 156.578 94.768 156.578 95.136C156.578 95.488 156.514 95.816 156.386 96.12C156.274 96.424 156.13 96.576 155.954 96.576C155.858 96.576 155.794 96.544 155.762 96.48C155.73 96.4 155.674 96.312 155.594 96.216C155.514 96.12 155.322 96 155.018 95.856C154.714 95.696 154.45 95.616 154.226 95.616C154.018 95.616 153.874 95.624 153.794 95.64C153.73 95.64 153.61 95.664 153.434 95.712C153.258 95.744 153.098 95.8 152.954 95.88C152.586 96.088 152.402 96.392 152.402 96.792C152.402 97.048 152.458 97.24 152.57 97.368C152.682 97.48 152.77 97.568 152.834 97.632C152.898 97.696 153.01 97.776 153.17 97.872C153.33 97.952 153.442 98.008 153.506 98.04C153.57 98.072 153.714 98.144 153.938 98.256C154.162 98.352 154.306 98.416 154.37 98.448C156.066 99.248 156.914 100.336 156.914 101.712ZM166.981 94.224C167.269 94.224 167.525 94.264 167.749 94.344C167.989 94.408 168.117 94.44 168.133 94.44L168.277 94.32L168.181 91.704C168.149 91.256 168.053 90.872 167.893 90.552C167.733 90.232 167.589 90.024 167.461 89.928L167.245 89.808C167.149 89.744 167.101 89.672 167.101 89.592C167.101 89.352 167.469 89.072 168.205 88.752C168.957 88.432 169.541 88.272 169.957 88.272C170.373 88.272 170.597 88.36 170.629 88.536C170.709 89.08 170.749 90.12 170.749 91.656C170.749 93.176 170.709 94.672 170.629 96.144C170.565 97.616 170.533 99.288 170.533 101.16C170.533 103.016 170.653 104.184 170.893 104.664C170.957 104.776 170.989 104.88 170.989 104.976C170.989 105.216 170.645 105.336 169.957 105.336C168.645 105.336 167.989 105.024 167.989 104.4C167.957 104.144 167.941 103.752 167.941 103.224C167.941 102.68 167.989 101.68 168.085 100.224C168.197 98.752 168.253 97.624 168.253 96.84C168.253 96.04 167.853 95.64 167.053 95.64C166.269 95.64 165.669 96.104 165.253 97.032C164.837 97.96 164.629 98.888 164.629 99.816C164.629 101.784 165.125 102.768 166.117 102.768C166.261 102.768 166.397 102.744 166.525 102.696C166.669 102.632 166.757 102.6 166.789 102.6C166.917 102.6 167.013 102.68 167.077 102.84C167.157 103 167.197 103.16 167.197 103.32C167.197 103.864 166.981 104.328 166.549 104.712C166.117 105.08 165.589 105.264 164.965 105.264C164.005 105.264 163.277 104.848 162.781 104.016C162.301 103.168 162.061 102.12 162.061 100.872C162.061 99.288 162.437 97.816 163.189 96.456C163.573 95.784 164.093 95.248 164.749 94.848C165.405 94.432 166.149 94.224 166.981 94.224ZM174.424 95.952C174.008 95.968 173.704 95.984 173.512 96C173.336 96 173.248 95.952 173.248 95.856C173.248 95.76 173.296 95.664 173.392 95.568C174.416 94.624 176.144 94.152 178.576 94.152C179.408 94.152 180.064 94.224 180.544 94.368L180.784 94.44C180.976 94.52 181.072 94.608 181.072 94.704C181.072 94.784 181.016 94.848 180.904 94.896C180.472 95.024 180.056 95.232 179.656 95.52C179.256 95.792 179.056 95.984 179.056 96.096L179.2 96.264C179.712 96.552 180.104 97.008 180.376 97.632C180.664 98.256 180.824 98.808 180.856 99.288L180.904 100.032C180.904 101.616 180.464 102.92 179.584 103.944C178.704 104.968 177.504 105.48 175.984 105.48C175.216 105.48 174.552 105.344 173.992 105.072C173.432 104.8 173.016 104.496 172.744 104.16C172.488 103.808 172.28 103.416 172.12 102.984C171.928 102.392 171.832 101.784 171.832 101.16C171.832 100.52 171.936 99.88 172.144 99.24C172.368 98.6 172.616 98.128 172.888 97.824C173.176 97.52 173.496 97.272 173.848 97.08C174.296 96.84 174.656 96.72 174.928 96.72C175.2 96.72 175.336 96.776 175.336 96.888L175.192 97.128C174.84 97.544 174.584 98.088 174.424 98.76C174.28 99.432 174.208 100.032 174.208 100.56C174.208 101.072 174.272 101.584 174.4 102.096C174.528 102.608 174.672 102.992 174.832 103.248C174.992 103.488 175.176 103.672 175.384 103.8C175.688 103.992 176.008 104.088 176.344 104.088C176.68 104.088 177.008 103.96 177.328 103.704C177.648 103.432 177.88 103.08 178.024 102.648C178.312 101.848 178.456 101.024 178.456 100.176C178.456 98.832 178.112 97.792 177.424 97.056C176.752 96.32 175.752 95.952 174.424 95.952ZM183.734 95.328C184.086 94.96 184.55 94.656 185.126 94.416C185.702 94.16 186.254 94.032 186.782 94.032C187.31 94.032 187.846 94.152 188.39 94.392C188.454 94.392 188.502 94.376 188.534 94.344C188.95 93.928 189.558 93.72 190.358 93.72C190.55 93.72 190.646 93.808 190.646 93.984C190.646 94 190.63 94.072 190.598 94.2C190.566 94.328 190.526 94.52 190.478 94.776C190.43 95.016 190.39 95.312 190.358 95.664C190.246 96.576 190.182 97.584 190.166 98.688C190.166 99.792 190.166 100.896 190.166 102L190.238 107.04C190.238 108.656 189.822 110 188.99 111.072C188.654 111.504 188.142 111.88 187.454 112.2C186.782 112.52 185.99 112.68 185.078 112.68C184.87 112.552 184.766 112.424 184.766 112.296C184.766 112.168 184.854 112.064 185.03 111.984C186.038 111.52 186.758 110.416 187.19 108.672C187.622 106.944 187.838 104.312 187.838 100.776L187.79 97.416L187.718 95.784C187.718 95.64 187.494 95.536 187.046 95.472C186.47 95.472 185.982 95.664 185.582 96.048C185.198 96.416 184.934 96.904 184.79 97.512C184.534 98.488 184.406 99.336 184.406 100.056C184.406 100.76 184.518 101.384 184.742 101.928C184.982 102.472 185.39 102.744 185.966 102.744C186.126 102.744 186.27 102.712 186.398 102.648C186.542 102.584 186.638 102.552 186.686 102.552C186.846 102.552 186.926 102.712 186.926 103.032C186.926 103.352 186.902 103.616 186.854 103.824C186.806 104.016 186.71 104.232 186.566 104.472C186.246 105 185.622 105.264 184.694 105.264C183.766 105.264 183.102 104.928 182.702 104.256C182.286 103.568 182.046 102.952 181.982 102.408C181.886 101.592 181.838 101.056 181.838 100.8C181.838 100.544 181.838 100.344 181.838 100.2C181.854 100.04 181.894 99.736 181.958 99.288C182.038 98.824 182.134 98.392 182.246 97.992C182.374 97.576 182.566 97.12 182.822 96.624C183.078 96.112 183.382 95.68 183.734 95.328Z" fill="#D9B343"/>
</svg>
